<?xml version="1.0" encoding="UTF-8" standalone="no"?>
<!DOCTYPE svg PUBLIC "-//W3C//DTD SVG 1.1//EN" "http://www.w3.org/Graphics/SVG/1.1/DTD/svg11.dtd">
<svg version="1.1" xmlns="http://www.w3.org/2000/svg" xmlns:xlink="http://www.w3.org/1999/xlink" preserveAspectRatio="xMidYMid meet" viewBox="-1 14 54 27" width="50" height="23"><defs><path d="M1 15C0.33 15 0 15.33 0 16C0 28.6 0 35.6 0 37C0 37.67 0.33 38 1 38C7 38 10.33 38 11 38C11.67 38 12 37.67 12 37C12 24.4 12 17.4 12 16C12 15.33 11.67 15 11 15C5 15 1.67 15 1 15Z" id="aDcIEnORw"></path><path d="M20 15C19.33 15 19 15.33 19 16C19 28.6 19 35.6 19 37C19 37.67 19.33 38 20 38C26 38 29.33 38 30 38C30.67 38 31 37.67 31 37C31 24.4 31 17.4 31 16C31 15.33 30.67 15 30 15C24 15 20.67 15 20 15Z" id="a5bvZqhmz"></path><path d="M39 15C38.33 15 38 15.33 38 16C38 28.6 38 35.6 38 37C38 37.67 38.33 38 39 38C45 38 48.33 38 49 38C49.67 38 50 37.67 50 37C50 24.4 50 17.4 50 16C50 15.33 49.67 15 49 15C43 15 39.67 15 39 15Z" id="a3EeKpclP"></path></defs><g><g><use xlink:href="#aDcIEnORw" opacity="1" fill="#ffffff" fill-opacity="0.2"></use><g><use xlink:href="#aDcIEnORw" opacity="1" fill-opacity="0" stroke="#000000" stroke-width="1" stroke-opacity="0"></use></g></g><g><use xlink:href="#a5bvZqhmz" opacity="1" fill="#ffffff" fill-opacity="0.5"></use><g><use xlink:href="#a5bvZqhmz" opacity="1" fill-opacity="0" stroke="#000000" stroke-width="1" stroke-opacity="0"></use></g></g><g><use xlink:href="#a3EeKpclP" opacity="1" fill="#ffffff" fill-opacity="1"></use><g><use xlink:href="#a3EeKpclP" opacity="1" fill-opacity="0" stroke="#000000" stroke-width="1" stroke-opacity="0"></use></g></g></g></svg>