<svg width="201" height="50" viewBox="0 0 201 50" fill="none" xmlns="http://www.w3.org/2000/svg">
<rect width="12" height="23" rx="1" transform="matrix(-1 0 0 1 12 15)" fill="#FFFFFF" fill-opacity="0.2"/>
<rect width="12" height="23" rx="1" transform="matrix(-1 0 0 1 31 15)" fill="#FFFFFF" fill-opacity="0.5"/>
<rect width="12" height="23" rx="1" transform="matrix(-1 0 0 1 50 15)" fill="#FFFFFF"/>
<path d="M61.362 9.578H66.487V40H61.362V9.578ZM81.5776 17.86C84.8029 17.86 87.2629 18.639 88.9576 20.197C90.6796 21.7277 91.5406 24.051 91.5406 27.167V40H86.7026V37.335C86.0739 38.2917 85.1719 39.0297 83.9966 39.549C82.8486 40.041 81.4546 40.287 79.8146 40.287C78.1746 40.287 76.7396 40.0137 75.5096 39.467C74.2796 38.893 73.3229 38.114 72.6396 37.13C71.9836 36.1187 71.6556 34.9843 71.6556 33.727C71.6556 31.759 72.3799 30.1873 73.8286 29.012C75.3046 27.8093 77.6142 27.208 80.7576 27.208H86.4156V26.88C86.4156 25.3493 85.9509 24.174 85.0216 23.354C84.1196 22.534 82.7666 22.124 80.9626 22.124C79.7326 22.124 78.5162 22.3153 77.3136 22.698C76.1382 23.0807 75.1406 23.6137 74.3206 24.297L72.3116 20.566C73.4596 19.6913 74.8399 19.0217 76.4526 18.557C78.0652 18.0923 79.7736 17.86 81.5776 17.86ZM80.8806 36.556C82.1652 36.556 83.2996 36.269 84.2836 35.695C85.2949 35.0937 86.0056 34.2463 86.4156 33.153V30.611H81.1266C78.1746 30.611 76.6986 31.5813 76.6986 33.522C76.6986 34.4513 77.0676 35.1893 77.8056 35.736C78.5436 36.2827 79.5686 36.556 80.8806 36.556ZM131.87 18.106L123.793 40H118.873L113.215 24.912L107.475 40H102.555L94.5195 18.106H99.3575L105.138 34.26L111.165 18.106H115.47L121.374 34.342L127.319 18.106H131.87ZM135.394 18.106H140.519V40H135.394V18.106ZM137.977 14.498C137.048 14.498 136.269 14.211 135.64 13.637C135.012 13.0357 134.697 12.2977 134.697 11.423C134.697 10.5483 135.012 9.824 135.64 9.25C136.269 8.64867 137.048 8.348 137.977 8.348C138.907 8.348 139.686 8.635 140.314 9.209C140.943 9.75567 141.257 10.4527 141.257 11.3C141.257 12.202 140.943 12.9673 140.314 13.596C139.713 14.1973 138.934 14.498 137.977 14.498ZM159.669 17.86C162.429 17.86 164.643 18.6663 166.311 20.279C167.978 21.8917 168.812 24.2833 168.812 27.454V40H163.687V28.11C163.687 26.1967 163.236 24.7617 162.334 23.805C161.432 22.821 160.147 22.329 158.48 22.329C156.594 22.329 155.104 22.903 154.011 24.051C152.917 25.1717 152.371 26.798 152.371 28.93V40H147.246V18.106H152.125V20.935C152.972 19.9237 154.038 19.1583 155.323 18.639C156.607 18.1197 158.056 17.86 159.669 17.86ZM197.243 18.106V36.679C197.243 44.387 193.307 48.241 185.435 48.241C183.331 48.241 181.335 47.9677 179.449 47.421C177.563 46.9017 176.005 46.1363 174.775 45.125L177.071 41.271C178.028 42.0637 179.231 42.6923 180.679 43.157C182.155 43.649 183.645 43.895 185.148 43.895C187.554 43.895 189.317 43.3483 190.437 42.255C191.558 41.1617 192.118 39.4943 192.118 37.253V36.105C191.244 37.0617 190.178 37.786 188.92 38.278C187.663 38.77 186.283 39.016 184.779 39.016C182.702 39.016 180.816 38.5787 179.121 37.704C177.454 36.802 176.128 35.5447 175.144 33.932C174.188 32.3193 173.709 30.4743 173.709 28.397C173.709 26.3197 174.188 24.4883 175.144 22.903C176.128 21.2903 177.454 20.0467 179.121 19.172C180.816 18.2973 182.702 17.86 184.779 17.86C186.365 17.86 187.8 18.1197 189.084 18.639C190.396 19.1583 191.49 19.951 192.364 21.017V18.106H197.243ZM185.558 34.67C187.499 34.67 189.084 34.096 190.314 32.948C191.572 31.7727 192.2 30.2557 192.2 28.397C192.2 26.5657 191.572 25.076 190.314 23.928C189.084 22.78 187.499 22.206 185.558 22.206C183.59 22.206 181.978 22.78 180.72 23.928C179.49 25.076 178.875 26.5657 178.875 28.397C178.875 30.2557 179.49 31.7727 180.72 32.948C181.978 34.096 183.59 34.67 185.558 34.67Z" fill="#FFFFFF"/>
</svg>
