<?xml version="1.0" encoding="UTF-8" standalone="no"?>
<!-- Generator: Adobe Illustrator 26.0.2, SVG Export Plug-In . SVG Version: 6.00 Build 0)  -->

<svg
   version="1.1"
   id="Camada_1"
   x="0px"
   y="0px"
   viewBox="0 0 1729.89 538.75011"
   xml:space="preserve"
   sodipodi:docname="logo.svg"
   inkscape:version="1.1 (c68e22c387, 2021-05-23)"
   width="1729.89"
   height="538.75012"
   xmlns:inkscape="http://www.inkscape.org/namespaces/inkscape"
   xmlns:sodipodi="http://sodipodi.sourceforge.net/DTD/sodipodi-0.dtd"
   xmlns="http://www.w3.org/2000/svg"
   xmlns:svg="http://www.w3.org/2000/svg"><defs
   id="defs981" /><sodipodi:namedview
   id="namedview979"
   pagecolor="#505050"
   bordercolor="#eeeeee"
   borderopacity="1"
   inkscape:pageshadow="0"
   inkscape:pageopacity="0"
   inkscape:pagecheckerboard="0"
   showgrid="false"
   inkscape:zoom="0.2536922"
   inkscape:cx="746.96818"
   inkscape:cy="502.57753"
   inkscape:window-width="1920"
   inkscape:window-height="1001"
   inkscape:window-x="-9"
   inkscape:window-y="-9"
   inkscape:window-maximized="1"
   inkscape:current-layer="g976"
   width="1995.68px"
   fit-margin-top="50"
   fit-margin-left="50"
   fit-margin-right="50"
   fit-margin-bottom="50" />
<style
   type="text/css"
   id="style942">
	.st0{fill:#00287F;}
	.st1{fill:#FEFEFE;}
</style>
<g
   id="g976"
   transform="translate(-132.89,-70.289906)">
	<g
   id="g950">
		<path
   class="st0"
   d="M 182.89,337.02 C 185.83,215.68 277.98,120.4 400.61,120.29 524.45,120.18 618.49,216.85 618.24,337.74 617.98,461.8 521.06,555.42 400.51,555.09 277.5,554.74 185.06,458.51 182.89,337.02 Z"
   id="path944" />
		<path
   class="st1"
   d="m 393.48,388.06 c 0.05,13.85 -2.02,26.6 -6.48,37.98 -0.12,0.36 -0.26,0.72 -0.43,1.08 -12.17,28.67 -39.23,47.97 -73.33,50.18 -0.89,0.05 -1.8,0.1 -2.69,0.12 -8.19,0.31 -10.06,-2.28 -10.01,-10.01 0.07,-16.21 0.12,-32.44 0.17,-48.64 0.1,-43.7 0.07,-87.37 -0.07,-131.07 -0.05,-13.83 1.99,-26.55 6.46,-37.94 0.14,-0.38 0.31,-0.77 0.46,-1.13 12.17,-28.67 39.23,-47.97 73.33,-50.18 0.89,-0.05 1.8,-0.1 2.69,-0.12 8.19,-0.31 10.06,2.28 10.01,9.99 -0.07,16.18 -0.12,32.39 -0.17,48.6 -0.09,43.72 -0.06,87.42 0.06,131.14 z"
   id="path946" />
		<path
   class="st1"
   d="m 453.18,477.12 c -25.59,-0.74 -45.55,-21.67 -45.01,-47.21 0.55,-26.19 22.03,-46.23 48.42,-45.19 25.9,1.02 45.16,21.98 44.08,47.97 -1.1,26.78 -20.8,45.2 -47.49,44.43 z"
   id="path948" />
	</g>
	<g
   id="g974">
		<rect
   x="734.71997"
   y="213.17999"
   class="st0"
   width="42.82"
   height="256.94"
   id="rect952" />
		<rect
   x="1348.51"
   y="273.98999"
   class="st0"
   width="42.82"
   height="188.99001"
   id="rect954" />
		<polygon
   class="st0"
   points="1255.73,462.34 1255.73,462.98 1255.51,462.98 "
   id="polygon956" />
		
		<path
   id="polygon960"
   style="fill:#00287f"
   class="st0"
   d="m 1019.85,273.99 2.35,6.99 20.84,60.67 41.4,120.69 0.21,0.64 h 45.89 l 13.06,-42.82 24.06,-78.51 h 2.42 v -67.66 h -26.48 l -2.14,6.99 -18.55,60.67 -16.35,53.31 -18.27,-53.31 -20.84,-60.67 -2.43,-6.99 z m 300.47,0 -2.35,6.99 -20.85,60.67 -41.39,120.69 -0.22,0.64 h -45.89 l -13.06,-42.82 -24.05,-78.51 h -2.43 v -67.66 h 26.48 l 2.14,6.99 18.56,60.67 16.34,53.31 18.28,-53.31 20.84,-60.67 2.42,-6.99 z" />
		<path
   class="st0"
   d="m 1598.31,348.79 v 114.19 h -42.82 V 355.57 c 0,-23.41 -20.77,-42.47 -46.39,-42.47 -25.62,0 -46.39,19.06 -46.39,42.47 v 107.41 h -42.82 V 348.79 c 0,-41.32 39.97,-74.8 89.21,-74.8 49.24,0 89.21,33.47 89.21,74.8 z"
   id="path962" />
		<rect
   x="1348.51"
   y="213.17999"
   class="st0"
   width="42.82"
   height="42.82"
   id="rect964" />
		<path
   class="st0"
   d="M 1016.63,280.98"
   id="path966" />
		<path
   class="st0"
   d="m 948.4,273.99 v 22.34 c -14.92,-11.85 -33.54,-18.91 -53.74,-18.91 -49.17,0 -89,41.54 -89,92.78 0,51.24 39.83,92.78 89,92.78 20.2,0 38.83,-7.07 53.74,-18.91 v 18.91 h 42.82 V 273.99 Z m -53.74,150.02 c -29.76,0 -53.81,-24.12 -53.81,-53.81 0,-29.69 24.05,-53.81 53.81,-53.81 29.69,0 53.74,24.12 53.74,53.81 0,29.69 -24.05,53.81 -53.74,53.81 z"
   id="path968" />
		<path
   class="st0"
   d="m 1812.78,273.99 h -96.07 v 0.14 c -53.1,0 -96.07,42.97 -96.07,96.07 0,16.84 4.35,32.62 11.99,46.39 7.57,13.85 18.56,25.62 31.76,34.19 8.28,5.42 17.49,9.56 27.26,12.2 7.99,2.14 16.42,3.28 25.05,3.28 8.64,0 17.06,-1.14 25.05,-3.28 9.85,-2.64 19.06,-6.78 27.34,-12.2 13.2,-8.64 24.12,-20.34 31.69,-34.19 7.64,-13.77 11.99,-29.55 11.99,-46.39 0,-19.77 -5.99,-38.11 -16.2,-53.39 h 16.2 v -42.82 z m -43.67,108.41 c -3.35,14.56 -12.63,26.91 -25.19,34.19 -7.99,4.78 -17.27,7.42 -27.19,7.42 -9.92,0 -19.2,-2.64 -27.12,-7.42 -12.56,-7.28 -21.84,-19.63 -25.19,-34.19 -0.93,-3.93 -1.43,-7.99 -1.43,-12.2 0,-29.69 24.05,-53.81 53.74,-53.81 2.21,0 4.35,0.14 6.49,0.43 26.62,3.21 47.32,25.91 47.32,53.39 -0.01,4.2 -0.51,8.27 -1.43,12.19 z"
   id="path970" />
		<path
   class="st0"
   d="m 1812.78,462.98 c 0,15.42 -3.64,29.9 -10.06,42.82 -15.7,31.55 -48.32,53.24 -86,53.24 -37.68,0 -70.3,-21.7 -86,-53.24 -6.42,-12.92 -10.06,-27.41 -10.06,-42.82 h 42.32 c 0,17.49 8.35,33.05 21.27,42.82 9.06,6.92 20.27,10.99 32.47,10.99 12.2,0 23.55,-4.07 32.55,-10.99 12.92,-9.78 21.27,-25.34 21.27,-42.82 z"
   id="path972" />
	</g>
</g>
</svg>
